<svg xmlns="http://www.w3.org/2000/svg" xmlns:xlink="http://www.w3.org/1999/xlink" viewBox="0 0 212.6 115.16"><defs><clipPath id="clip-path" transform="translate(-0.1 -0.68)"><rect class="cls-1" width="213" height="116"/></clipPath></defs><title>Logo_Dark</title><g id="Layer_2" data-name="Layer 2"><g id="Layer_1-2" data-name="Layer 1"><path class="cls-2" d="M93.08,37.63H40.78C22.64,38.77,4.05,40,.1,40.44l.43.06L88.21,41a18.37,18.37,0,0,0,6.63,9.73,19.37,19.37,0,0,0,11.57,3.91A19.08,19.08,0,0,0,117.26,51c2.95-2.07,6.3-6.35,7.15-9.89l87.87-.46.42,0c-3.93-.43-22.53-1.64-40.67-2.81h-52.3c0,15.14-26.65,16.76-26.65-.2Z" transform="translate(-0.1 -0.68)"/><path class="cls-3" d="M103.88,17.91,90.7,18,79,19.32,90.76,21H96c-.4.25-.8.53-1.19.82A19,19,0,0,0,88,32.28a30.05,30.05,0,0,0,4.74,0c.59-1,.87-2.07,1.67-3.28a14.22,14.22,0,0,1,22.79-1.36,14.52,14.52,0,0,1,2.21,3.85c.17.4.34.77.48,1.08a32.11,32.11,0,0,0,4.73-.11c-.28-3.69-4-8.77-7.34-11.06a7.26,7.26,0,0,0-.68-.45h5l11.71-1.65L121.6,18l-13.1-.05-.08-5.31L106.18.76l-2.32,11.47Z" transform="translate(-0.1 -0.68)"/><g class="cls-4"><path class="cls-5" d="M79,19.32a112.21,112.21,0,0,1,24.86-1.41c-.56-3.83.2-9.56,2.3-17.15" transform="translate(-0.1 -0.68)"/><path class="cls-6" d="M96,21q-5.31.55-17-1.65m54.31,0a111.79,111.79,0,0,0-24.83-1.41c.57-3.83-.22-9.56-2.32-17.15M116.32,21q5.33.55,17-1.65M93.08,37.63Q41.26,36,.33,40.47m119.4-2.64q51.87-1.57,92.77,2.84" transform="translate(-0.1 -0.68)"/></g><path class="cls-7" d="M171.52,37.83q-24.37-.84-51.79,0Z" transform="translate(-0.1 -0.68)"/><path class="cls-6" d="M171.52,37.83q-24.37-.84-51.79,0Z" transform="translate(-0.1 -0.68)"/><path class="cls-7" d="M171.52,37.83q-24.37-.84-51.79,0Z" transform="translate(-0.1 -0.68)"/><path class="cls-6" d="M171.52,37.83q-24.37-.84-51.79,0Z" transform="translate(-0.1 -0.68)"/><path class="cls-8" d="M171.52,37.83q-24.37-.84-51.79,0Z" transform="translate(-0.1 -0.68)"/><path class="cls-6" d="M171.52,37.83q-24.37-.84-51.79,0Z" transform="translate(-0.1 -0.68)"/><path class="cls-8" d="M3.2,40.16c6.91-.54,22-1.53,37-2.5q-19.47.72-37,2.5Z" transform="translate(-0.1 -0.68)"/><path class="cls-6" d="M3.2,40.16c6.91-.54,22-1.53,37-2.5q-19.47.72-37,2.5Z" transform="translate(-0.1 -0.68)"/><path class="cls-8" d="M41.29,37.63H93.08q-27.42-.84-51.79,0Z" transform="translate(-0.1 -0.68)"/><path class="cls-6" d="M41.29,37.63H93.08q-27.42-.84-51.79,0Z" transform="translate(-0.1 -0.68)"/><path class="cls-8" d="M93.08,37.63H41.29l-1.13,0c-14.94,1-30,2-37,2.5-1,.11-1.93.19-2.87.31l.2,0L88.21,41a18.37,18.37,0,0,0,6.63,9.73,19.37,19.37,0,0,0,11.57,3.91A19.08,19.08,0,0,0,117.26,51c2.95-2.07,6.3-6.35,7.15-9.89l87.87-.46.22,0c-1-.12-1.92-.2-2.89-.32-6.88-.53-22-1.53-37-2.46-.37,0-.74,0-1.13-.06H119.73c0,15.14-26.65,16.76-26.65-.2Z" transform="translate(-0.1 -0.68)"/><g class="cls-4"><path class="cls-6" d="M93.08,37.63H41.29l-1.13,0c-14.94,1-30,2-37,2.5-1,.11-1.93.19-2.87.31l.2,0L88.21,41a18.37,18.37,0,0,0,6.63,9.73,19.37,19.37,0,0,0,11.57,3.91A19.08,19.08,0,0,0,117.26,51c2.95-2.07,6.3-6.35,7.15-9.89l87.87-.46.22,0c-1-.12-1.92-.2-2.89-.32-6.88-.53-22-1.53-37-2.46-.37,0-.74,0-1.13-.06H119.73c0,15.14-26.65,16.76-26.65-.2Z" transform="translate(-0.1 -0.68)"/></g><path class="cls-8" d="M119.73,37.83c0,15.14-26.65,16.76-26.65-.2H41.29l-1.13,0c-14.94,1-30,2-37,2.5l-2.87.31.2,0L88.21,41a18.37,18.37,0,0,0,6.63,9.73,19.37,19.37,0,0,0,11.57,3.91A19.08,19.08,0,0,0,117.26,51c2.95-2.07,6.3-6.35,7.15-9.89l87.87-.46.22,0-2.89-.32c-6.88-.53-22-1.53-37-2.46-.37,0-.74,0-1.13-.06Z" transform="translate(-0.1 -0.68)"/><g class="cls-4"><path class="cls-6" d="M119.73,37.83c0,15.14-26.65,16.76-26.65-.2H41.29l-1.13,0c-14.94,1-30,2-37,2.5l-2.87.31.2,0L88.21,41a18.37,18.37,0,0,0,6.63,9.73,19.37,19.37,0,0,0,11.57,3.91A19.08,19.08,0,0,0,117.26,51c2.95-2.07,6.3-6.35,7.15-9.89l87.87-.46.22,0-2.89-.32c-6.88-.53-22-1.53-37-2.46-.37,0-.74,0-1.13-.06Z" transform="translate(-0.1 -0.68)"/></g><path class="cls-8" d="M79,19.32A100.78,100.78,0,0,0,90.76,21Z" transform="translate(-0.1 -0.68)"/><path class="cls-6" d="M79,19.32A100.78,100.78,0,0,0,90.76,21Z" transform="translate(-0.1 -0.68)"/><path class="cls-8" d="M79,19.32,90.76,21H96c-.4.25-.8.53-1.19.82A19,19,0,0,0,88,32.28a26.84,26.84,0,0,0,4.74,0c.59-1,.87-2.07,1.67-3.28a14.22,14.22,0,0,1,22.79-1.36,14.52,14.52,0,0,1,2.21,3.85l.48,1.08a32.11,32.11,0,0,0,4.73-.11c-.28-3.69-4-8.77-7.34-11.06l-.65-.42a0,0,0,0,0,0,0h5l11.71-1.65L121.6,18l-13.1-.05-.08-5.31L106.18.76l-2.32,11.47,0,5.68L90.7,18Z" transform="translate(-0.1 -0.68)"/><g class="cls-4"><path class="cls-6" d="M79,19.32,90.76,21H96c-.4.25-.8.53-1.19.82A19,19,0,0,0,88,32.28a26.84,26.84,0,0,0,4.74,0c.59-1,.87-2.07,1.67-3.28a14.22,14.22,0,0,1,22.79-1.36,14.52,14.52,0,0,1,2.21,3.85l.48,1.08a32.11,32.11,0,0,0,4.73-.11c-.28-3.69-4-8.77-7.34-11.06l-.65-.42a0,0,0,0,0,0,0h5l11.71-1.65L121.6,18l-13.1-.05-.08-5.31L106.18.76l-2.32,11.47,0,5.68L90.7,18Z" transform="translate(-0.1 -0.68)"/></g><path class="cls-8" d="M106.18.76a70.39,70.39,0,0,0-2.32,11.47Z" transform="translate(-0.1 -0.68)"/><g class="cls-4"><path class="cls-6" d="M106.18.76a70.39,70.39,0,0,0-2.32,11.47Z" transform="translate(-0.1 -0.68)"/></g><path class="cls-8" d="M106.18.76l2.24,11.84.08,5.31c.57-3.83-.22-9.56-2.32-17.15Z" transform="translate(-0.1 -0.68)"/><g class="cls-4"><path class="cls-6" d="M106.18.76l2.24,11.84.08,5.31c.57-3.83-.22-9.56-2.32-17.15Z" transform="translate(-0.1 -0.68)"/></g><path class="cls-9" d="M.1,90.56H16.8V86.28H5.38V67.8H.1Zm24.72,0H30.1V67.8H24.82ZM57.76,72V67.8H40.55V90.56h5.28V82.25H56.38V78H45.83V72ZM71.65,86.33V81.06H82.23V77H71.65V72h12V67.8H66.41V90.56H84V86.33ZM100.79,91c6.5,0,9.64-3.26,9.64-7.06,0-8.36-13.24-5.46-13.24-9.66,0-1.45,1.22-2.61,4.34-2.61a13.11,13.11,0,0,1,6.32,1.79l1.61-4a15.31,15.31,0,0,0-7.9-2c-6.47,0-9.58,3.23-9.58,7.08C92,83,105.22,80,105.22,84.29c0,1.39-1.28,2.44-4.4,2.44a13.36,13.36,0,0,1-7.51-2.38l-1.79,4c2,1.56,5.64,2.63,9.27,2.63Zm22.71-.39h5.27V72.07h7.28V67.8H116.21v4.27h7.29ZM163.32,67.8h-5.18l-6.07,10.11L146,67.8h-5.59l8.82,14.62v8.14h5.24V82.48Zm7,22.76h16.7V86.28H175.63V67.8h-5.28Zm30-4.23V81.06h10.57V77H200.32V72h12V67.8H195.07V90.56H212.7V86.33Z" transform="translate(-0.1 -0.68)"/><path class="cls-9" d="M67.68,115.73H69l-5.52-12H62.27l-5.5,12h1.3l1.45-3.23h6.72ZM60,111.48,62.9,105l2.89,6.46Zm21.63-7.8L77,114.14l-4.62-10.46H71l5.36,12h1.25l5.33-12Zm5.5,12h1.28v-12H87.13Zm16.67,0h1.36l-5.53-12H98.38l-5.5,12h1.34l1.44-3.23h6.69Zm-7.69-4.25L99,105l2.89,6.46Zm15.26,4.25h1.27V104.79h4.22v-1.11h-9.72v1.11h4.23Zm10,0h1.28v-12H121.4Zm12.92.11a6.14,6.14,0,1,0-6.32-6.15,6.07,6.07,0,0,0,6.32,6.15Zm0-1.13a5,5,0,1,1,5.05-5,4.92,4.92,0,0,1-5.05,5Zm20.47-11v9.78l-7.73-9.78H146v12h1.27V106l7.77,9.78h1v-12Z" transform="translate(-0.1 -0.68)"/></g></g></svg>